<svg width="51" height="51" viewBox="0 0 51 51" fill="none" xmlns="http://www.w3.org/2000/svg">
<path fill-rule="evenodd" clip-rule="evenodd" d="M0.363037 25.7694C0.363037 11.8548 11.6782 0.545166 25.5727 0.545166C39.4672 0.545166 50.7823 11.8548 50.7823 25.7694C50.7823 39.6546 39.4672 50.9644 25.5727 50.9644C11.6782 50.9644 0.363037 39.6546 0.363037 25.7694ZM34.8196 28.3206C35.0871 28.0532 35.4279 27.6397 35.5007 27.5424C35.8902 27.0317 36.0849 26.3994 36.0849 25.7694C36.0849 25.0615 35.8658 24.4048 35.4521 23.8699C35.4183 23.8358 35.3517 23.7638 35.2653 23.6695C35.1034 23.4935 34.8713 23.2404 34.6492 23.0186C32.6538 20.8783 27.4463 17.3759 24.7211 16.3058C24.3074 16.1379 23.261 15.7707 22.7013 15.7464C22.1658 15.7464 21.6548 15.868 21.1683 16.1112C20.56 16.4517 20.0733 16.9868 19.8056 17.6191C19.6353 18.0569 19.3676 19.3703 19.3676 19.3946C19.0999 20.8296 18.9539 23.1645 18.9539 25.7427C18.9539 28.2017 19.0999 30.4367 19.3189 31.8961C19.3249 31.9022 19.3459 32.0065 19.3784 32.1686C19.4773 32.6615 19.6832 33.6885 19.903 34.1093C20.4383 35.1308 21.4847 35.7633 22.604 35.7633H22.7013C23.4314 35.7388 24.9644 35.1066 24.9644 35.0824C27.5438 34.012 32.6294 30.68 34.6734 28.4666L34.8196 28.3206Z" fill="#009B97"/>
</svg>
