<svg width="108" height="108" viewBox="0 0 108 108" fill="none" xmlns="http://www.w3.org/2000/svg">
<circle cx="53.5728" cy="53.7547" r="53.522" fill="white" fill-opacity="0.78"/>
<path fill-rule="evenodd" clip-rule="evenodd" d="M28.363 53.7694C28.363 39.8548 39.6782 28.5452 53.5727 28.5452C67.4672 28.5452 78.7823 39.8548 78.7823 53.7694C78.7823 67.6546 67.4672 78.9644 53.5727 78.9644C39.6782 78.9644 28.363 67.6546 28.363 53.7694ZM62.8196 56.3206C63.087 56.0532 63.4279 55.6397 63.5007 55.5424C63.8902 55.0317 64.0848 54.3994 64.0848 53.7694C64.0848 53.0615 63.8658 52.4048 63.4521 51.8699C63.4183 51.8359 63.3518 51.7638 63.2653 51.6695C63.1034 51.4935 62.8713 51.2404 62.6492 51.0186C60.6538 48.8783 55.4463 45.3759 52.7211 44.3058C52.3074 44.1379 51.261 43.7707 50.7013 43.7464C50.1658 43.7464 49.6548 43.868 49.1683 44.1112C48.56 44.4517 48.0733 44.9868 47.8056 45.6191C47.6353 46.0569 47.3676 47.3703 47.3676 47.3946C47.0999 48.8296 46.9539 51.1645 46.9539 53.7427C46.9539 56.2017 47.0999 58.4367 47.3189 59.8961C47.3249 59.9022 47.3459 60.0065 47.3784 60.1686C47.4773 60.6615 47.6832 61.6885 47.903 62.1093C48.4383 63.1308 49.4847 63.7633 50.604 63.7633H50.7013C51.4314 63.7388 52.9644 63.1066 52.9644 63.0824C55.5438 62.012 60.6294 58.68 62.6734 56.4666L62.8196 56.3206Z" fill="#009B97"/>
</svg>
