<svg width="240" height="82" viewBox="0 0 240 82" fill="none" xmlns="http://www.w3.org/2000/svg">
<path fill-rule="evenodd" clip-rule="evenodd" d="M89.5717 44.2658C89.5539 44.3852 89.5128 44.4998 89.4508 44.6033C89.3887 44.7068 89.3068 44.797 89.2099 44.8688C89.1129 44.9406 89.0028 44.9927 88.8857 45.0219C88.7687 45.0512 88.647 45.0571 88.5277 45.0393C88.4083 45.0216 88.2936 44.9805 88.1902 44.9184C88.0867 44.8563 87.9965 44.7745 87.9247 44.6775C87.8528 44.5806 87.8008 44.4704 87.7716 44.3533C87.7423 44.2363 87.7364 44.1146 87.7542 43.9953L90.8343 23.586C90.8607 23.3875 90.9514 23.2031 91.0926 23.0611C91.2338 22.9191 91.4177 22.8273 91.616 22.7997C91.8144 22.7722 92.0163 22.8104 92.1908 22.9086C92.3654 23.0067 92.503 23.1594 92.5825 23.3432L101.178 39.9925C101.267 40.2069 101.273 40.4472 101.193 40.6655C101.114 40.8838 100.954 41.064 100.748 41.1701C100.541 41.2761 100.302 41.3002 100.078 41.2375C99.854 41.1748 99.6621 41.0299 99.5405 40.8319L92.2287 26.68L89.5717 44.2658Z" fill="#009B97"/>
<path fill-rule="evenodd" clip-rule="evenodd" d="M112.964 43.9957C113 44.2367 112.939 44.4821 112.793 44.6779C112.648 44.8737 112.432 45.0038 112.19 45.0397C111.949 45.0756 111.704 45.0143 111.508 44.8692C111.312 44.7241 111.182 44.5072 111.146 44.2662L108.489 26.6873L101.178 40.8392C101.056 41.0373 100.864 41.1821 100.64 41.2448C100.417 41.3075 100.177 41.2834 99.9705 41.1774C99.7637 41.0713 99.6045 40.8912 99.5248 40.6729C99.4451 40.4545 99.4507 40.2142 99.5405 39.9998L108.136 23.3505C108.215 23.1667 108.353 23.014 108.527 22.9159C108.702 22.8177 108.904 22.7795 109.102 22.807C109.3 22.8346 109.484 22.9264 109.626 23.0684C109.767 23.2104 109.857 23.3948 109.884 23.5933L112.964 43.9957Z" fill="#009B97"/>
<path fill-rule="evenodd" clip-rule="evenodd" d="M135.579 38.6611C135.639 38.5568 135.72 38.4653 135.815 38.392C135.91 38.3186 136.019 38.2648 136.136 38.2335C136.252 38.2023 136.373 38.1943 136.493 38.2099C136.612 38.2255 136.727 38.2645 136.831 38.3246C136.936 38.3848 137.027 38.4648 137.101 38.5603C137.174 38.6558 137.228 38.7648 137.259 38.881C137.29 38.9973 137.298 39.1186 137.283 39.238C137.267 39.3574 137.228 39.4725 137.168 39.5768C136.172 41.3054 134.739 42.7413 133.012 43.7399C131.285 44.7385 129.326 45.2647 127.331 45.2653C125.668 45.2704 124.023 44.9101 122.514 44.2101C121.005 43.51 119.668 42.4871 118.598 41.2137C117.528 39.9404 116.75 38.4475 116.32 36.8406C115.89 35.2337 115.818 33.552 116.109 31.9142C116.4 30.2764 117.047 28.7224 118.004 27.3621C118.962 26.0018 120.206 24.8683 121.649 24.0416C123.093 23.2149 124.7 22.7152 126.358 22.5779C128.016 22.4405 129.684 22.6688 131.244 23.2466C132.496 23.7025 133.657 24.3792 134.671 25.2445C134.773 25.3187 134.859 25.4133 134.923 25.5223C134.987 25.6314 135.028 25.7525 135.043 25.8781C135.058 26.0037 135.047 26.1311 135.01 26.2521C134.973 26.3731 134.912 26.4853 134.83 26.5814C134.747 26.6775 134.646 26.7556 134.532 26.8107C134.418 26.8658 134.294 26.8966 134.168 26.9014C134.042 26.9061 133.916 26.8847 133.798 26.8383C133.68 26.7919 133.573 26.7217 133.484 26.632C132.628 25.9164 131.654 25.3554 130.605 24.974C128.903 24.3511 127.058 24.2273 125.288 24.6171C123.518 25.0068 121.896 25.894 120.613 27.1742C119.329 28.4544 118.438 30.0744 118.044 31.8437C117.65 33.6129 117.77 35.4579 118.389 37.1617C119.008 38.8654 120.1 40.3569 121.538 41.461C122.975 42.565 124.698 43.2356 126.504 43.3938C128.31 43.552 130.123 43.1913 131.731 42.3542C133.338 41.517 134.674 40.2382 135.579 38.668V38.6611Z" fill="#009B97"/>
<path fill-rule="evenodd" clip-rule="evenodd" d="M133.429 25.2929C133.602 25.12 133.836 25.0229 134.081 25.0229C134.325 25.0229 134.56 25.12 134.733 25.2929C134.903 25.4676 134.997 25.7015 134.997 25.945C134.997 26.1884 134.903 26.4223 134.733 26.5971L123.557 37.7729C123.473 37.863 123.371 37.9351 123.258 37.985C123.145 38.035 123.023 38.0617 122.899 38.0636C122.776 38.0655 122.653 38.0426 122.538 37.9962C122.424 37.9498 122.32 37.8808 122.232 37.7935C122.145 37.7061 122.076 37.602 122.03 37.4875C121.983 37.373 121.96 37.2503 121.962 37.1267C121.964 37.0032 121.991 36.8813 122.041 36.7682C122.091 36.6552 122.163 36.5534 122.253 36.4687L133.429 25.2929Z" fill="#009B97"/>
<path fill-rule="evenodd" clip-rule="evenodd" d="M149.384 23.3853C149.421 23.2631 149.483 23.15 149.567 23.0532C149.65 22.9564 149.753 22.8781 149.868 22.8234C149.983 22.7686 150.109 22.7386 150.237 22.7352C150.364 22.7318 150.491 22.7552 150.609 22.8038C150.727 22.8524 150.834 22.9251 150.922 23.0174C151.011 23.1096 151.079 23.2193 151.122 23.3394C151.165 23.4595 151.183 23.5873 151.174 23.7147C151.165 23.8421 151.13 23.9662 151.07 24.079L142.357 44.6201C142.246 44.8142 142.068 44.9612 141.856 45.0338C141.644 45.1065 141.414 45.0997 141.207 45.0149C141 44.93 140.831 44.7729 140.731 44.5726C140.631 44.3724 140.607 44.1427 140.664 43.9264L149.384 23.3853Z" fill="#009B97"/>
<path fill-rule="evenodd" clip-rule="evenodd" d="M149.384 24.1069C149.325 23.994 149.289 23.8699 149.28 23.7425C149.271 23.6151 149.289 23.4873 149.332 23.3672C149.376 23.2471 149.444 23.1374 149.532 23.0452C149.62 22.9529 149.727 22.8802 149.845 22.8316C149.963 22.783 150.09 22.7596 150.218 22.763C150.346 22.7664 150.471 22.7964 150.586 22.8512C150.702 22.9059 150.804 22.9842 150.888 23.081C150.971 23.1778 151.033 23.2909 151.07 23.4131L159.783 43.9265C159.843 44.0393 159.878 44.1634 159.887 44.2908C159.896 44.4182 159.879 44.546 159.835 44.6661C159.792 44.7862 159.724 44.8959 159.635 44.9881C159.547 45.0804 159.441 45.1531 159.322 45.2017C159.204 45.2503 159.077 45.2737 158.95 45.2703C158.822 45.2669 158.697 45.2369 158.581 45.1821C158.466 45.1274 158.363 45.0491 158.28 44.9523C158.197 44.8555 158.135 44.7424 158.098 44.6202L149.384 24.1069Z" fill="#009B97"/>
<path fill-rule="evenodd" clip-rule="evenodd" d="M137.695 45.2652C137.45 45.2652 137.216 45.168 137.043 44.995C136.87 44.822 136.773 44.5873 136.773 44.3426C136.773 44.0979 136.87 43.8632 137.043 43.6902C137.216 43.5171 137.45 43.4199 137.695 43.4199H162.704C162.949 43.4199 163.183 43.5171 163.356 43.6902C163.529 43.8632 163.626 44.0979 163.626 44.3426C163.626 44.5873 163.529 44.822 163.356 44.995C163.183 45.168 162.949 45.2652 162.704 45.2652H137.695Z" fill="#009B97"/>
<path fill-rule="evenodd" clip-rule="evenodd" d="M167.227 44.2664C167.191 44.5074 167.061 44.7243 166.865 44.8694C166.669 45.0145 166.424 45.0758 166.183 45.0399C165.942 45.004 165.725 44.8739 165.58 44.6781C165.435 44.4823 165.373 44.2369 165.409 43.9959L168.489 23.5866C168.518 23.389 168.611 23.2061 168.753 23.0654C168.894 22.9248 169.078 22.8339 169.276 22.8066C169.474 22.7792 169.675 22.8168 169.85 22.9136C170.024 23.0105 170.163 23.1615 170.245 23.3438L178.833 39.9931C178.888 40.1001 178.921 40.217 178.931 40.337C178.941 40.457 178.928 40.5777 178.891 40.6924C178.854 40.8071 178.795 40.9134 178.717 41.0053C178.64 41.0971 178.544 41.1728 178.437 41.2279C178.33 41.283 178.214 41.3165 178.094 41.3265C177.974 41.3364 177.853 41.3227 177.738 41.2859C177.623 41.2492 177.517 41.1903 177.425 41.1125C177.333 41.0347 177.258 40.9395 177.203 40.8325L169.884 26.6806L167.227 44.2664Z" fill="#009B97"/>
<path fill-rule="evenodd" clip-rule="evenodd" d="M190.626 43.9957C190.662 44.2376 190.6 44.4838 190.454 44.6802C190.309 44.8767 190.091 45.0072 189.849 45.0432C189.73 45.0618 189.608 45.0564 189.49 45.0272C189.373 44.9981 189.262 44.9458 189.166 44.8734C189.069 44.8011 188.987 44.7101 188.926 44.6058C188.865 44.5015 188.825 44.3861 188.809 44.2662L186.145 26.6873L178.833 40.8392C178.778 40.9463 178.702 41.0414 178.61 41.1192C178.518 41.197 178.412 41.256 178.297 41.2927C178.183 41.3294 178.062 41.3432 177.942 41.3332C177.822 41.3233 177.705 41.2898 177.598 41.2347C177.491 41.1795 177.396 41.1039 177.318 41.012C177.24 40.9201 177.181 40.8138 177.145 40.6991C177.108 40.5845 177.094 40.4637 177.104 40.3437C177.114 40.2237 177.147 40.1069 177.203 39.9998L185.791 23.3505C185.87 23.1667 186.008 23.014 186.182 22.9159C186.357 22.8177 186.559 22.7795 186.757 22.807C186.956 22.8346 187.14 22.9264 187.281 23.0684C187.422 23.2104 187.513 23.3948 187.539 23.5933L190.626 43.9957Z" fill="#009B97"/>
<path fill-rule="evenodd" clip-rule="evenodd" d="M213.234 38.6614C213.295 38.5571 213.375 38.4657 213.47 38.3923C213.566 38.3189 213.675 38.2651 213.791 38.2339C213.907 38.2026 214.028 38.1946 214.148 38.2102C214.267 38.2258 214.382 38.2648 214.487 38.325C214.591 38.3851 214.682 38.4652 214.756 38.5606C214.829 38.6561 214.883 38.7651 214.914 38.8814C214.945 38.9976 214.953 39.1189 214.938 39.2383C214.922 39.3577 214.883 39.4728 214.823 39.5771C213.657 41.5963 211.898 43.2074 209.784 44.1914C207.671 45.1754 205.305 45.4846 203.01 45.0769C200.714 44.6692 198.6 43.5644 196.954 41.9127C195.309 40.261 194.212 38.1426 193.813 35.8455C193.413 33.5484 193.731 31.1842 194.723 29.0742C195.715 26.9642 197.333 25.2109 199.356 24.0527C201.38 22.8944 203.711 22.3875 206.033 22.6008C208.354 22.8141 210.554 23.7373 212.333 25.2448C212.495 25.408 212.59 25.6262 212.598 25.8561C212.607 26.086 212.529 26.3107 212.379 26.4856C212.23 26.6604 212.02 26.7726 211.791 26.7998C211.563 26.827 211.333 26.7672 211.146 26.6323C210.289 25.9184 209.315 25.3575 208.267 24.9743C206.565 24.3503 204.721 24.2253 202.95 24.6141C201.179 25.0028 199.557 25.8891 198.273 27.1687C196.989 28.4483 196.097 30.068 195.702 31.8373C195.307 33.6065 195.426 35.4517 196.044 37.1559C196.662 38.86 197.754 40.3522 199.191 41.4569C200.628 42.5616 202.351 43.2328 204.157 43.3917C205.963 43.5506 207.776 43.1905 209.384 42.3537C210.993 41.517 212.328 40.2384 213.234 38.6684V38.6614Z" fill="#009B97"/>
<path fill-rule="evenodd" clip-rule="evenodd" d="M211.084 25.2933C211.259 25.1291 211.49 25.0394 211.73 25.0431C211.97 25.0468 212.199 25.1437 212.368 25.3132C212.538 25.4827 212.635 25.7116 212.638 25.9513C212.642 26.191 212.552 26.4228 212.388 26.5975L201.184 37.7733C201.102 37.87 201 37.9484 200.885 38.0037C200.77 38.0591 200.645 38.09 200.518 38.0947C200.391 38.0994 200.264 38.0778 200.146 38.0311C200.027 37.9844 199.92 37.9137 199.83 37.8234C199.74 37.7331 199.67 37.6253 199.624 37.5066C199.578 37.3879 199.557 37.2609 199.562 37.1337C199.568 37.0065 199.599 36.8818 199.655 36.7674C199.711 36.6531 199.79 36.5515 199.887 36.4691L211.084 25.2933Z" fill="#009B97"/>
<path fill-rule="evenodd" clip-rule="evenodd" d="M227.893 23.4685C227.997 23.2567 228.179 23.0931 228.401 23.0114C228.623 22.9298 228.868 22.9363 229.085 23.0297C229.302 23.1231 229.475 23.2963 229.568 23.5135C229.661 23.7306 229.667 23.9753 229.586 24.197L220.81 44.5785C220.776 44.7056 220.716 44.824 220.633 44.926C220.55 45.0279 220.447 45.1109 220.329 45.1695C220.212 45.2281 220.083 45.2609 219.951 45.2658C219.82 45.2706 219.689 45.2473 219.568 45.1975C219.446 45.1476 219.337 45.0724 219.246 44.9768C219.156 44.8812 219.088 44.7675 219.045 44.6432C219.002 44.5189 218.987 44.387 218.999 44.2562C219.012 44.1254 219.052 43.9987 219.117 43.8848L227.893 23.4685Z" fill="#009B97"/>
<path fill-rule="evenodd" clip-rule="evenodd" d="M227.893 24.197C227.811 23.9753 227.817 23.7306 227.91 23.5135C228.004 23.2963 228.177 23.1231 228.394 23.0297C228.611 22.9363 228.855 22.9298 229.077 23.0114C229.299 23.0931 229.481 23.2567 229.585 23.4685L238.361 43.857C238.418 44.0734 238.394 44.303 238.295 44.5033C238.195 44.7035 238.026 44.8607 237.819 44.9455C237.612 45.0303 237.381 45.0371 237.169 44.9645C236.958 44.8918 236.78 44.7448 236.668 44.5507L227.893 24.197Z" fill="#009B97"/>
<path fill-rule="evenodd" clip-rule="evenodd" d="M93.6576 54.5889V60.4717H92.6864V56.1914L90.4873 59.8196H90.0225L87.8512 56.1914V60.4994H86.873V54.5889H87.9691L90.2792 58.564L92.6517 54.5889H93.6576ZM101.171 57.5789C101.171 57.6621 101.171 57.7662 101.171 57.898H96.4048C96.4301 58.1422 96.5046 58.3787 96.6238 58.5933C96.7431 58.808 96.9045 58.9962 97.0985 59.1467C97.5121 59.4681 98.0249 59.6349 98.5484 59.6184C98.864 59.6329 99.179 59.5783 99.4713 59.4585C99.7637 59.3387 100.026 59.1565 100.241 58.9247L100.831 59.6184C100.562 59.9273 100.221 60.1655 99.8387 60.3121C99.4177 60.4808 98.9671 60.5634 98.5137 60.5549C97.9403 60.5662 97.373 60.4351 96.8626 60.1734C96.3913 59.9257 96.0012 59.5476 95.7388 59.0842C95.4715 58.6105 95.335 58.0742 95.3434 57.5303C95.3367 56.9919 95.4706 56.4611 95.7319 55.9903C95.9724 55.5418 96.3358 55.1713 96.7794 54.9219C97.2427 54.6608 97.7668 54.5268 98.2986 54.5334C98.824 54.5251 99.3419 54.6594 99.7971 54.9219C100.237 55.1718 100.595 55.5426 100.831 55.9903C101.087 56.475 101.216 57.0168 101.205 57.565L101.171 57.5789ZM98.2639 55.4492C97.793 55.4334 97.334 55.5998 96.9826 55.9138C96.6311 56.2277 96.4142 56.6651 96.377 57.1349H100.144C100.103 56.6687 99.8872 56.2352 99.5404 55.9209C99.1917 55.6049 98.7343 55.4359 98.2639 55.4492ZM108.829 59.549V61.8453H107.83V60.4578H102.919V61.8453H101.906V59.5352H102.218C102.593 59.5352 102.856 59.2507 102.995 58.7374C103.163 58.0297 103.258 57.3069 103.28 56.5799L103.37 54.5889H107.927V59.5352L108.829 59.549ZM104.258 56.6701C104.242 57.2841 104.181 57.8962 104.077 58.5015C104.028 58.8969 103.85 59.2651 103.571 59.549H106.838V55.4977H104.285L104.23 56.6285L104.258 56.6701ZM110.342 54.5889H111.41V58.8761L115.017 54.5889H115.982V60.4717H114.913V56.1914L111.32 60.4717H110.342V54.5889ZM124.452 59.5352V61.8799H123.439V60.4925H118.174V54.5889H119.235V59.5352H122.454V54.5889H123.488V59.5352H124.452ZM125.957 54.5889H127.019V58.8761L130.626 54.5889H131.59V60.4717H130.522V56.1914L126.956 60.4717H125.985V54.5889H125.957ZM133.782 54.5889H134.851V57.0863H138.195V54.5889H139.263V60.4717H138.195V58.009H134.851V60.4717H133.782V54.5889ZM143.564 54.5334C144.24 54.4871 144.909 54.7033 145.43 55.137C145.66 55.3702 145.837 55.6501 145.95 55.9576C146.062 56.2652 146.107 56.5933 146.082 56.9198V60.4717H145.069V59.6947C144.886 59.9879 144.617 60.2179 144.299 60.3538C143.928 60.5059 143.528 60.5791 143.127 60.5688C142.561 60.5965 142.003 60.43 141.545 60.0971C141.361 59.9436 141.213 59.7519 141.11 59.5353C141.008 59.3187 140.954 59.0824 140.952 58.8428C140.95 58.6032 141 58.366 141.099 58.1478C141.198 57.9295 141.343 57.7354 141.524 57.5789C142.053 57.2225 142.686 57.0561 143.321 57.1071H144.993V56.8852C145.004 56.6915 144.975 56.4976 144.907 56.316C144.839 56.1344 144.734 55.9691 144.598 55.8307C144.264 55.5652 143.843 55.434 143.418 55.463C143.071 55.462 142.726 55.5206 142.398 55.6365C142.093 55.7365 141.809 55.8917 141.559 56.0943L141.115 55.2965C141.437 55.043 141.805 54.8524 142.197 54.7346C142.634 54.6056 143.088 54.5402 143.543 54.5404L143.564 54.5334ZM143.321 59.7155C143.691 59.7243 144.056 59.6307 144.376 59.445C144.667 59.2657 144.892 58.995 145.014 58.675V57.8494H143.377C142.475 57.8494 142.024 58.1547 142.024 58.7651C142.018 58.8999 142.047 59.0339 142.106 59.155C142.165 59.2762 142.254 59.3806 142.364 59.4589C142.646 59.6466 142.983 59.7368 143.321 59.7155ZM157.147 60.5341C156.595 60.5449 156.05 60.411 155.565 60.1456C155.11 59.8983 154.732 59.5282 154.476 59.0773C154.217 58.6029 154.081 58.0709 154.081 57.5303C154.081 56.9897 154.217 56.4577 154.476 55.9833C154.733 55.535 155.111 55.1674 155.565 54.9219C156.051 54.6598 156.595 54.5261 157.147 54.5334C157.694 54.526 158.234 54.6598 158.715 54.9219C159.167 55.1684 159.542 55.5359 159.797 55.9833C160.056 56.4577 160.192 56.9897 160.192 57.5303C160.192 58.0709 160.056 58.6029 159.797 59.0773C159.543 59.5273 159.168 59.8973 158.715 60.1456C158.236 60.4111 157.695 60.5451 157.147 60.5341ZM157.147 59.6045C157.501 59.611 157.851 59.5224 158.16 59.3479C158.454 59.1707 158.694 58.9164 158.854 58.6125C159.023 58.2768 159.111 57.9062 159.111 57.5303C159.111 57.1545 159.023 56.7838 158.854 56.4481C158.695 56.1449 158.455 55.8924 158.16 55.7197C157.846 55.5556 157.498 55.4699 157.144 55.4699C156.79 55.4699 156.441 55.5556 156.127 55.7197C155.834 55.895 155.594 56.1468 155.434 56.4481C155.26 56.7825 155.17 57.1537 155.17 57.5303C155.17 57.907 155.26 58.2781 155.434 58.6125C155.596 58.9144 155.835 59.168 156.127 59.3479C156.438 59.5233 156.79 59.6119 157.147 59.6045ZM164.979 57.4054C165.325 57.4822 165.643 57.6554 165.895 57.9049C166.107 58.1404 166.221 58.4482 166.214 58.7651C166.213 59.1057 166.087 59.4341 165.86 59.6878C165.591 59.9793 165.252 60.1967 164.875 60.3191C164.43 60.476 163.96 60.5534 163.488 60.548C163.054 60.5493 162.622 60.4909 162.204 60.3746C161.81 60.2717 161.435 60.1054 161.094 59.882L161.413 59.0704C161.712 59.2573 162.037 59.3976 162.378 59.4866C162.734 59.5887 163.103 59.6401 163.474 59.6392C163.892 59.6585 164.308 59.5676 164.681 59.3756C164.813 59.3129 164.925 59.2149 165.004 59.0924C165.084 58.97 165.128 58.8279 165.132 58.6819C165.136 58.5536 165.104 58.4267 165.041 58.3152C164.977 58.2037 164.884 58.1122 164.771 58.0506C164.458 57.8839 164.105 57.8071 163.751 57.8286H162.676V57.0516H163.675C164.002 57.069 164.329 56.9971 164.618 56.8435C164.723 56.7881 164.811 56.7052 164.872 56.6038C164.933 56.5023 164.965 56.3862 164.965 56.2677C164.964 56.1355 164.924 56.0064 164.852 55.8958C164.779 55.7852 164.677 55.6976 164.556 55.6434C164.217 55.4813 163.843 55.4051 163.467 55.4214C162.823 55.436 162.191 55.5923 161.615 55.8793L161.323 55.0607C162.02 54.6998 162.793 54.5118 163.578 54.5126C164.012 54.5078 164.443 54.5758 164.854 54.7138C165.195 54.822 165.501 55.0182 165.742 55.2827C165.949 55.5079 166.063 55.8027 166.061 56.1082C166.063 56.3941 165.959 56.6707 165.77 56.8852C165.563 57.1259 165.294 57.3058 164.993 57.4054H164.979ZM173.942 59.5352V61.8314H172.943V60.4439H168.032V61.8314H167.019V59.5352H167.331C167.705 59.5352 167.969 59.2507 168.108 58.7374C168.276 58.0297 168.371 57.3069 168.392 56.5799L168.482 54.5889H173.04V59.5352H173.942ZM169.37 56.6562C169.354 57.2702 169.294 57.8823 169.19 58.4876C169.141 58.883 168.963 59.2512 168.684 59.5352H171.979V55.4977H169.426L169.37 56.6285V56.6562ZM177.973 60.5341C177.423 60.544 176.88 60.4101 176.398 60.1456C175.942 59.8983 175.565 59.5282 175.309 59.0773C175.049 58.6029 174.913 58.0709 174.913 57.5303C174.913 56.9897 175.049 56.4577 175.309 55.9833C175.566 55.535 175.943 55.1674 176.398 54.9219C176.881 54.6607 177.423 54.527 177.973 54.5334C178.522 54.5251 179.065 54.659 179.547 54.9219C180 55.1684 180.374 55.5359 180.629 55.9833C180.889 56.4577 181.025 56.9897 181.025 57.5303C181.025 58.0709 180.889 58.6029 180.629 59.0773C180.375 59.5273 180 59.8973 179.547 60.1456C179.066 60.4116 178.523 60.5456 177.973 60.5341ZM177.973 59.6045C178.329 59.6119 178.682 59.5233 178.992 59.3479C179.286 59.1707 179.526 58.9164 179.686 58.6125C179.855 58.2768 179.943 57.9062 179.943 57.5303C179.943 57.1545 179.855 56.7838 179.686 56.4481C179.528 56.1449 179.287 55.8924 178.992 55.7197C178.679 55.5556 178.33 55.4699 177.976 55.4699C177.622 55.4699 177.273 55.5556 176.96 55.7197C176.667 55.895 176.427 56.1468 176.266 56.4481C176.093 56.7825 176.002 57.1537 176.002 57.5303C176.002 57.907 176.093 58.2781 176.266 58.6125C176.429 58.9144 176.668 59.168 176.96 59.3479C177.268 59.5224 177.618 59.611 177.973 59.6045ZM185.812 54.5334C186.347 54.5271 186.875 54.6585 187.345 54.915C187.79 55.1603 188.158 55.5256 188.406 55.9694C188.657 56.4528 188.787 56.9893 188.787 57.5338C188.787 58.0782 188.657 58.6147 188.406 59.0981C188.16 59.5454 187.792 59.9135 187.345 60.1595C186.874 60.4139 186.346 60.5429 185.812 60.5341C185.412 60.5402 185.016 60.4572 184.653 60.2913C184.306 60.135 184.001 59.897 183.765 59.5976V62.6361H182.697V54.5889H183.717V55.4977C183.946 55.1747 184.257 54.9185 184.618 54.7554C184.993 54.5848 185.4 54.4995 185.812 54.5057V54.5334ZM185.728 59.6045C186.083 59.611 186.433 59.5224 186.741 59.3479C187.033 59.168 187.272 58.9144 187.435 58.6125C187.608 58.2781 187.699 57.907 187.699 57.5303C187.699 57.1537 187.608 56.7825 187.435 56.4481C187.274 56.1468 187.034 55.895 186.741 55.7197C186.43 55.5518 186.082 55.4659 185.728 55.47C185.376 55.4634 185.028 55.5521 184.722 55.7266C184.434 55.8924 184.194 56.1318 184.029 56.4204C183.845 56.7484 183.754 57.12 183.765 57.4956C183.756 57.8724 183.845 58.2452 184.022 58.5778C184.18 58.8825 184.421 59.1371 184.716 59.3132C185.024 59.4871 185.374 59.5757 185.728 59.5699V59.6045ZM192.978 60.5341C192.428 60.545 191.885 60.411 191.403 60.1456C190.945 59.8993 190.565 59.5291 190.307 59.0773C190.048 58.6029 189.912 58.0709 189.912 57.5303C189.912 56.9897 190.048 56.4577 190.307 55.9833C190.566 55.534 190.946 55.1663 191.403 54.9219C191.887 54.6667 192.427 54.5334 192.974 54.5334C193.522 54.5334 194.061 54.6667 194.546 54.9219C195 55.1674 195.378 55.535 195.635 55.9833C195.89 56.4591 196.023 56.9905 196.023 57.5303C196.023 58.0701 195.89 58.6016 195.635 59.0773C195.379 59.5282 195.001 59.8983 194.546 60.1456C194.066 60.4111 193.525 60.5451 192.978 60.5341ZM192.978 59.6045C193.332 59.611 193.682 59.5224 193.991 59.3479C194.282 59.168 194.522 58.9144 194.684 58.6125C194.849 58.2754 194.934 57.9053 194.934 57.5303C194.934 57.1553 194.849 56.7852 194.684 56.4481C194.523 56.1468 194.284 55.895 193.991 55.7197C193.68 55.5518 193.331 55.4659 192.978 55.47C192.622 55.4647 192.271 55.5507 191.958 55.7197C191.665 55.895 191.425 56.1468 191.264 56.4481C191.095 56.7838 191.007 57.1545 191.007 57.5303C191.007 57.9062 191.095 58.2768 191.264 58.6125C191.427 58.9144 191.666 59.168 191.958 59.3479C192.269 59.5226 192.621 59.6112 192.978 59.6045ZM201.705 57.4193C202.035 57.4794 202.333 57.6574 202.542 57.9202C202.751 58.183 202.858 58.5128 202.842 58.8484C202.854 59.0813 202.807 59.3133 202.705 59.5231C202.603 59.7329 202.45 59.9136 202.26 60.0485C201.74 60.3671 201.133 60.5151 200.525 60.4717H197.716V54.5889H200.449C201.02 54.5577 201.587 54.6952 202.079 54.9844C202.265 55.1042 202.416 55.2701 202.518 55.4659C202.62 55.6617 202.67 55.8806 202.662 56.1013C202.671 56.3888 202.586 56.6714 202.419 56.906C202.239 57.1373 201.999 57.3149 201.726 57.4193H201.705ZM198.743 57.121H200.338C200.661 57.1419 200.983 57.0645 201.261 56.899C201.368 56.831 201.454 56.7348 201.511 56.6211C201.567 56.5073 201.591 56.3803 201.58 56.2539C201.58 55.692 201.164 55.4145 200.338 55.4145H198.743V57.121ZM200.449 59.66C200.795 59.6823 201.14 59.6104 201.448 59.4519C201.559 59.3851 201.649 59.2886 201.708 59.1734C201.766 59.0581 201.792 58.9288 201.781 58.7998C201.792 58.668 201.769 58.5355 201.716 58.4144C201.663 58.2933 201.58 58.1874 201.476 58.1061C201.186 57.9383 200.853 57.861 200.518 57.8841H198.743V59.66H200.449ZM209.683 54.6028V60.4856H208.621V55.4977H206.089L206.04 56.8297C206.014 57.4951 205.942 58.158 205.825 58.8137C205.752 59.269 205.579 59.7024 205.319 60.0832C205.206 60.2386 205.056 60.3636 204.883 60.4471C204.71 60.5306 204.519 60.5701 204.327 60.5619C204.106 60.5571 203.887 60.522 203.675 60.4578L203.744 59.5629C203.832 59.5724 203.92 59.5724 204.008 59.5629C204.149 59.5777 204.291 59.549 204.415 59.4808C204.539 59.4126 204.639 59.3081 204.702 59.1814C204.855 58.8946 204.954 58.5817 204.993 58.2587C205.035 57.9049 205.076 57.3985 205.111 56.7395L205.215 54.5612L209.683 54.6028ZM217.189 57.5789C217.194 57.6852 217.194 57.7917 217.189 57.898H212.423C212.448 58.1422 212.523 58.3787 212.642 58.5933C212.761 58.808 212.922 58.9962 213.116 59.1467C213.529 59.4691 214.043 59.6361 214.566 59.6184C214.882 59.6324 215.197 59.5776 215.489 59.4579C215.781 59.3381 216.044 59.1561 216.259 58.9247L216.849 59.6184C216.58 59.9273 216.239 60.1655 215.857 60.3121C215.436 60.4808 214.985 60.5634 214.532 60.5549C213.958 60.5662 213.391 60.4351 212.881 60.1734C212.413 59.9328 212.025 59.5617 211.764 59.1051C211.509 58.6293 211.375 58.0979 211.375 57.5581C211.375 57.0183 211.509 56.4868 211.764 56.0111C212.01 55.5648 212.375 55.1952 212.818 54.9427C213.279 54.6816 213.801 54.5475 214.33 54.5542C214.858 54.5457 215.378 54.6799 215.836 54.9427C216.274 55.1948 216.632 55.565 216.869 56.0111C217.12 56.4976 217.246 57.0386 217.237 57.5858L217.189 57.5789ZM214.282 55.4492C213.812 55.4333 213.355 55.5999 213.005 55.9139C212.656 56.2291 212.44 56.6658 212.402 57.1349H216.169C216.128 56.6687 215.912 56.2352 215.565 55.9209C215.214 55.6039 214.755 55.4348 214.282 55.4492ZM218.971 54.6028H220.04V57.1002H223.384V54.6028H224.445V60.4856H223.384V58.009H220.033V60.4717H218.965V54.5889L218.971 54.6028ZM226.658 54.6028H227.719V58.89L231.327 54.6028H232.291V60.4856H231.23V56.1914L227.629 60.4717H226.658V54.5889V54.6028ZM239.2 54.6028V60.4856H238.243V58.6056H236.412L235.128 60.4717H233.984L235.413 58.4599C235.006 58.3456 234.648 58.1021 234.393 57.7662C234.119 57.3524 234.003 56.8546 234.064 56.3623C234.125 55.8701 234.36 55.4159 234.726 55.0815C235.285 54.7031 235.953 54.5179 236.627 54.5542L239.2 54.6028ZM235.128 56.684C235.116 56.8473 235.144 57.0111 235.208 57.1619C235.271 57.3126 235.37 57.446 235.496 57.5511C235.828 57.7623 236.22 57.8619 236.613 57.8356H238.243V55.4977H236.654C235.635 55.4977 235.128 55.9139 235.128 56.6909V56.684Z" fill="#009B97"/>
<path fill-rule="evenodd" clip-rule="evenodd" d="M50.8621 70.6901C50.2238 70.2669 49.5926 69.8229 48.9335 69.4275C48.2745 69.0321 45.8326 68.3661 45.0972 68.5465C45.34 68.7546 45.9575 69.157 46.1448 69.2818C46.7483 69.6842 50.1614 70.8011 50.8968 70.6693L50.8621 70.6901ZM67.6709 59.1882C69.0237 58.1476 71.7361 51.5989 71.6321 49.8021C71.3685 49.7466 70.7857 49.8438 70.4458 49.7674C70.1128 53.0418 69.4191 56.448 67.6709 59.1882ZM3.09242 60.2218C3.7237 59.9721 6.32516 60.3675 6.78995 60.4785C5.92189 59.9354 4.92724 59.6281 3.90414 59.5867C2.88104 59.5453 1.86482 59.7714 0.955756 60.2426C2.29799 61.2287 3.94055 61.719 5.60369 61.6301C6.49854 61.5054 7.40979 61.5764 8.27452 61.8382C7.57101 61.3422 6.78715 60.9714 5.95749 60.7421C5.13196 60.5271 3.93182 60.3953 3.09242 60.2288V60.2218ZM39.1659 75.9554C37.2929 76.4063 31.9027 78.3488 30.6123 80.0414C31.569 79.6474 32.5889 79.4288 33.6231 79.3963C35.0502 79.4175 36.4495 79.0011 37.6328 78.2031C38.3766 77.6423 38.9153 76.8525 39.1659 75.9554ZM70.4319 66.5278C70.4319 65.9866 70.4319 65.4733 70.4319 64.9669C70.4249 63.5988 70.1905 62.2414 69.7382 60.9502C69.3135 59.8571 69.2987 58.6472 69.6966 57.5441C69.8631 58.3141 69.6966 59.1396 70.1475 59.9305C70.0643 57.8493 70.0573 57.9395 70.2724 57.1556C71.2759 58.505 71.8281 60.1365 71.8506 61.818C71.873 63.4995 71.3644 65.1451 70.3973 66.5208L70.4319 66.5278ZM16.4466 61.2069C16.7784 61.3882 17.0783 61.6225 17.3345 61.9006C18.16 62.851 18.9786 63.8292 19.7764 64.8073C19.6822 64.0705 19.4763 63.3524 19.1659 62.6776C18.0699 59.9443 16.3147 58.8483 13.6162 58.1684C13.9742 59.1806 14.3887 60.1719 14.8579 61.1375C16.0719 64.287 17.4386 64.6478 19.8735 65.7855C18.8052 64.398 17.501 62.6013 16.4396 61.2277L16.4466 61.2069ZM8.9613 60.4022C8.78787 60.1663 8.67687 60.0206 8.57975 59.868C7.65563 58.4873 6.93597 56.9802 6.44309 55.3935C6.24885 54.7345 5.63144 52.6672 4.97934 52.3897C5.04871 52.6256 5.09033 52.7713 5.1389 52.9239C5.47188 53.9159 5.83262 54.9079 6.12398 55.9138C6.66294 57.556 7.38674 59.1316 8.28145 60.6103C6.88445 59.5048 5.86615 57.9919 5.36782 56.2815C5.11115 55.4143 4.86834 54.5472 4.63942 53.6731C4.38087 52.4945 4.04011 51.3355 3.61965 50.2045C4.54398 50.6432 5.39559 51.2211 6.14479 51.918C6.91118 52.5873 7.54838 53.3914 8.02478 54.2905C8.5268 55.1985 8.83839 56.1994 8.94049 57.2319C9.03067 58.2308 8.94049 59.2506 8.94049 60.3883L8.9613 60.4022ZM22.1004 72.4521C19.2933 72.4949 16.6133 73.6296 14.629 75.6155C14.8163 74.2281 17.0501 73.236 18.1462 72.7157C18.2919 72.6464 18.4306 72.5701 18.5693 72.4938C16.4049 72.5909 14.6151 73.3817 13.9006 75.6016C13.6248 76.5319 13.4253 77.4832 13.304 78.4459C13.6162 78.3488 13.8451 78.2863 14.0671 78.21C15.3835 77.7313 16.7359 77.3578 18.1115 77.0931C19.0411 76.9266 20.3938 76.5104 20.8239 75.6016C21.0459 75.123 21.2749 74.6374 21.476 74.1448C21.6772 73.6523 21.8784 73.0487 22.1004 72.4313V72.4521ZM63.2589 66.2086C62.1555 67.4802 60.9539 68.6631 59.6654 69.7466C58.5901 70.6207 57.5149 71.4879 56.4257 72.3411C53.8769 74.2218 52.0424 76.9124 51.2228 79.9721C52.5306 79.0643 53.9332 78.3013 55.4059 77.6967C56.4951 77.2943 57.5704 76.8573 58.6595 76.4549C60.1688 75.8352 61.4572 74.7764 62.3577 73.4158C63.2582 72.0552 63.7292 70.4555 63.7098 68.824C63.7098 68.1719 63.7098 67.5753 63.6612 66.9232C63.1132 67.721 62.4888 68.5742 61.8714 69.3096C61.41 69.806 60.9966 70.3448 60.6366 70.919C59.9251 72.2066 59.3486 73.5642 58.9162 74.9703C58.972 73.9217 59.1609 72.8844 59.4781 71.8833L59.152 72.1538C57.8963 73.3829 56.8218 74.7844 55.9609 76.3162C58.1531 70.9398 62.8218 68.4702 63.2589 66.2433V66.2086ZM42.253 74.1448C44.7088 73.9922 49.7105 72.7574 51.7986 71.5156C49.9186 71.4185 47.7958 71.2104 46.1448 70.2877C45.8395 70.1212 42.475 68.2412 43.5572 67.8597C44.6745 67.5622 45.842 67.5036 46.9836 67.6877C48.1251 67.8718 49.215 68.2944 50.1822 68.928C50.6122 69.2147 51.0224 69.5299 51.4101 69.8715C51.7362 70.1902 52.149 70.4056 52.597 70.4908C53.0449 70.5759 53.508 70.527 53.9283 70.3502C54.6428 70.1082 55.3384 69.8137 56.0095 69.4691C57.7982 68.5499 59.5123 67.4922 61.1361 66.3058C62.4317 65.3714 63.5738 64.241 64.5214 62.9551C64.9307 62.3932 65.3331 61.8104 65.7354 61.2416C67.9864 57.9418 69.3549 54.1206 69.7105 50.1421C69.7126 49.9596 69.7359 49.778 69.7798 49.601C69.9672 48.8517 72.6727 48.8448 72.3397 49.9201C72.0924 51.7443 71.5611 53.5186 70.7649 55.1785C70.6657 55.3517 70.6136 55.5478 70.6136 55.7473C70.6136 55.9469 70.6657 56.143 70.7649 56.3162C71.0771 56.8781 71.3407 57.4677 71.6529 58.0227C72.2093 58.9853 72.5368 60.0629 72.6102 61.1722C72.7628 63.6904 71.4378 68.2066 68.8572 69.157C69.6411 68.1649 70.0157 66.5902 69.426 63.9332C69.1624 62.747 68.5728 60.5895 68.4479 59.4657C67.5461 60.7907 66.2072 62.414 65.3123 63.5725C64.3133 64.8628 64.6186 66.2086 64.8405 67.5891C65.0792 69.4356 64.7064 71.3094 63.7792 72.9239C63.1517 74.0358 62.3508 75.0405 61.4066 75.8999C60.1864 76.8547 58.7913 77.5617 57.2998 77.9811C55.0964 78.6435 52.9953 79.6076 51.0563 80.8462C50.7545 81.0581 50.4671 81.2898 50.1961 81.5399C50.1961 81.3526 50.2516 81.1514 50.3002 80.9641C50.6704 79.4406 51.1861 77.9561 51.8402 76.5312C52.4422 75.2564 53.302 74.1202 54.3654 73.1944C55.621 72.0914 56.9113 71.0023 58.2294 69.9686C59.7139 68.8101 62.142 67.0619 63.1479 65.4733C61.9631 66.4847 60.7091 67.4119 59.3948 68.2482C55.0083 71.1006 50.1895 73.2254 45.125 74.5402C44.1468 74.8038 43.1895 75.1438 42.2252 75.4421C41.2168 75.7657 40.3184 76.3639 39.6307 77.1694C38.0976 78.9037 37.2929 79.6946 34.8163 79.9443C33.7296 80.0052 32.6502 80.1608 31.5905 80.4091C30.8274 80.6242 30.099 80.8878 29.329 81.1028C29.6689 79.8195 31.0147 78.8413 32.1038 78.1961C33.8061 77.2307 35.603 76.4426 37.4663 75.8444C38.2641 75.5739 39.0757 75.3311 39.8805 74.9842C37.6918 74.9929 35.5054 74.8422 33.3387 74.5333C31.9512 74.346 30.6123 74.0893 29.2596 73.8396C27.4073 73.458 25.5829 72.7921 23.7098 72.7851C23.5317 72.7805 23.3561 72.8279 23.2046 72.9215C23.053 73.0152 22.9321 73.151 22.8565 73.3123C22.6554 73.7008 22.4681 74.1101 22.2808 74.5055C22.0241 75.0397 21.7882 75.5808 21.5177 76.1011C21.3412 76.4379 21.0975 76.7348 20.8015 76.9735C20.5056 77.2122 20.1637 77.3875 19.7972 77.4885C17.7716 78.0574 15.3158 78.6124 13.2485 79.091C12.9155 79.1743 12.7421 79.091 12.756 78.7095C12.7651 77.2298 13.1015 75.7705 13.741 74.4362C14.0737 73.8578 14.521 73.3533 15.0554 72.9537C15.5897 72.5541 16.2 72.2678 16.8489 72.1122C17.8949 71.8732 18.9681 71.7752 20.04 71.8208H23.1063C22.9051 71.7168 22.7594 71.6335 22.6068 71.5642C21.0321 70.8704 19.5059 70.1074 18.0005 69.2679C16.3431 68.3104 14.7901 67.1828 13.3664 65.9034C12.7837 65.397 10.5083 63.1701 10.0574 62.962C8.79531 62.2415 7.34216 61.9267 5.89505 62.0602C4.18894 62.329 2.44545 61.918 1.039 60.9155C0.782326 60.7421 0.477088 60.5687 0.192663 60.3536C-0.091763 60.1386 -0.057077 59.9235 0.268972 59.8403C1.3239 59.4517 2.41672 59.175 3.52946 59.0147C4.30696 58.9893 5.08319 59.0949 5.82568 59.3269L6.2766 59.4657C5.84649 58.5083 5.06259 57.5996 4.6741 55.782C4.41743 54.568 4.16075 53.3609 3.85551 52.1608C3.62658 51.3006 3.24504 50.4334 2.97449 49.5593C4.65329 49.7883 6.50553 51.1688 7.63629 52.3828C8.74833 53.6528 9.52357 55.1819 9.89089 56.8295C10.0941 57.6361 10.1736 58.4688 10.1268 59.2992C10.0921 59.9443 10.1268 60.5895 10.1268 61.2347C10.1372 61.5309 10.2614 61.8116 10.4736 62.0186C14.239 66.0246 18.8152 69.1819 23.8971 71.2797C24.4868 71.5156 25.4511 72.0914 26.0546 72.0567C24.0497 70.5236 23.023 69.9755 21.3997 67.8944C20.7488 67.044 19.8883 66.3771 18.9023 65.9589C17.8276 65.528 16.8577 64.8715 16.0583 64.0338C15.2589 63.1961 14.6485 62.1966 14.2683 61.1029C14.1295 60.6936 12.8461 57.7661 13.0334 57.6342C13.4497 57.2943 15.8985 57.9464 16.4604 58.2725C18.6873 59.5767 20.7684 62.4348 20.9766 65.0362C21.026 65.5555 21.2101 66.0529 21.5107 66.4792C23.7587 69.8273 27.1707 72.2206 31.0841 73.1944C33.2624 73.7425 40.5326 74.2281 42.253 74.1448Z" fill="#5FCCB6"/>
<path fill-rule="evenodd" clip-rule="evenodd" d="M66.6026 24.2247C66.4639 24.1692 65.118 23.6628 64.9793 23.5865L64.4521 23.8779C65.1874 24.2456 68.1704 25.5775 68.3577 25.959C68.4389 26.3397 68.4762 26.7284 68.4687 27.1176C68.3785 29.615 70.1891 31.0926 73.2554 33.257C73.852 31.7308 72.7073 28.6368 71.8679 27.3118C71.7787 27.1721 71.6815 27.0378 71.5766 26.9094C71.2862 26.493 70.8922 26.1595 70.4336 25.9417C69.975 25.7239 69.4675 25.6295 68.9613 25.6677C68.8596 25.6118 68.77 25.5363 68.6976 25.4457C68.5148 25.2031 68.3179 24.9715 68.108 24.752C67.7056 24.3774 66.8246 23.649 66.4014 23.2813L65.9089 23.5865C65.9991 23.6698 66.5332 24.1415 66.6026 24.2317V24.2247ZM40.5117 0.992021C41.0703 0.625894 41.7121 0.406397 42.3779 0.353798C42.2718 1.06083 42.0164 1.73717 41.6286 2.33784C40.8725 2.17135 40.4701 1.79674 40.5326 0.992021H40.5117ZM19.8458 13.701C19.4018 14.034 18.7636 14.4363 18.4237 14.6791L18.4792 15.3729C18.9796 14.8649 19.5227 14.4007 20.1025 13.9854L19.8458 13.7218V13.701ZM18.0421 14.2143L17.7438 14.4849L16.5784 13.9785C17.4524 14.2629 18.8399 12.6951 18.8191 12.6812L19.3255 13.1876C18.8954 13.5276 18.3404 13.9646 18.0421 14.2143ZM38.715 3.38536C39.6653 3.35787 40.6038 3.16782 41.4899 2.82345C41.6564 2.75407 40.7962 2.67776 40.3938 2.20603C40.1739 1.9186 40.0655 1.56129 40.0886 1.20014C39.6862 1.26951 38.9578 1.76205 38.7011 3.38536H38.715ZM9.80764 22.761C6.97032 27.1731 6.20029 29.3513 4.45904 34.249L3.47396 34.3045C4.8614 30.6209 7.15762 24.856 9.71745 22.1505L9.82845 20.8116C6.24885 25.4388 4.8614 28.7825 2.82186 34.2906C2.49581 35.1578 4.14687 34.7693 4.6741 34.7485C4.77583 34.7536 4.87643 34.7251 4.9604 34.6675C5.04438 34.6098 5.10709 34.5262 5.13889 34.4294C5.40251 33.7357 5.54125 33.1321 5.76324 32.4592C6.83253 29.2985 8.26419 26.2722 10.0296 23.4408L9.80764 22.7471V22.761ZM36.9391 10.17C38.0421 10.2046 39.27 10.3226 40.373 10.4058C42.8496 10.6001 43.6543 11.377 43.6127 13.4582C40.5117 14.0617 40.047 18.0923 42.2252 19.7017C43.4878 20.6382 44.8406 21.436 46.1794 22.2476C46.3529 22.3517 46.8732 22.7124 47.0258 22.6361C47.0743 22.6361 47.0258 22.5251 47.0258 22.4141C46.5887 20.992 47.0258 20.0277 47.1437 18.6334C47.338 16.4412 46.783 14.1034 44.1468 13.8675C44.8693 14.1565 45.4921 14.6495 45.9393 15.2863C46.3864 15.9231 46.6386 16.6763 46.6651 17.454C46.7691 18.7721 46.4223 19.9445 46.4708 21.9077C45.5274 21.214 43.8277 20.1387 42.8496 19.5144C41.254 18.4877 40.8794 15.0607 43.3491 14.1519C43.3005 15.5949 43.3491 17.5303 44.5978 18.9108C44.0636 17.3708 43.5919 16.3441 43.8347 14.2768C44.0775 12.2095 44.1815 11.599 43.4046 10.5792C45.3817 10.2948 50.9592 12.487 52.4923 13.6455V13.1807C50.2941 11.8978 47.9293 10.9243 45.4649 10.2879C42.6553 9.59417 39.381 10.0867 36.62 9.7676C36.4188 9.7676 36.2245 9.69129 36.0234 9.67047L36.0719 10.1491C36.2615 10.1872 36.4544 10.2058 36.6477 10.2046C36.7378 10.1983 36.8282 10.1983 36.9183 10.2046L36.9391 10.17ZM53.1722 11.6684V12.1193C51.1604 11.3146 46.9911 9.6566 45.8465 9.34443C45.9713 9.22649 47.8097 7.68643 47.775 7.64481C46.5977 8.03884 45.3727 8.27219 44.133 8.33853C41.5971 8.58732 39.0458 8.63835 36.502 8.49115L36.5922 8.06798C36.5922 8.06798 42.142 8.43565 45.9713 7.72112C46.6026 7.60319 49.3012 6.77072 49.9047 5.97294C48.907 7.12712 47.834 8.21401 46.6928 9.22649C48.9155 9.86274 51.0824 10.6794 53.1722 11.6684ZM35.0522 5.61914C36.3188 4.98784 37.6429 4.47911 39.0064 4.09989C40.2083 3.7378 41.4456 3.50524 42.697 3.40617C43.9526 3.30905 45.902 3.2813 47.2617 3.21193C45.4489 2.75018 43.5624 2.6535 41.7119 2.9275C41.8784 2.58064 43.0161 0 42.7039 0C42.586 0 38.8052 0.0901838 38.1947 3.50329C37.945 3.5796 35.073 4.53 35.0522 4.50225V5.61914ZM69.1069 26.077C69.6478 26.1588 70.1617 26.3673 70.6065 26.6856C71.0514 27.0039 71.4147 27.4229 71.6668 27.9084C72.4289 29.1575 72.8831 30.5699 72.9918 32.0291C72.9918 32.1956 72.9918 32.369 72.9918 32.6118C71.7223 31.5296 69.8284 30.2879 69.2387 28.727C68.9932 28.0616 68.9379 27.3409 69.0792 26.6458C70.1613 27.9617 71.1489 29.3527 72.0344 30.8082C71.4385 29.5156 70.7257 28.2803 69.9047 27.1176C69.6134 26.7985 69.3775 26.4308 69.1069 26.077Z" fill="#5FCCB6"/>
<path fill-rule="evenodd" clip-rule="evenodd" d="M17.9935 18.4045C19.9776 17.8496 21.1569 20.5967 19.8458 21.561C19.2977 21.9564 18.604 21.9009 18.6179 22.7126C18.6216 22.8594 18.6076 23.0061 18.5763 23.1496C18.5536 23.2691 18.5066 23.3826 18.4382 23.4832C18.3698 23.5838 18.2815 23.6693 18.1788 23.7343C18.076 23.7994 17.961 23.8426 17.8408 23.8613C17.7206 23.8801 17.5979 23.874 17.4802 23.8433C17.1039 23.7185 16.7431 23.5509 16.4049 23.3438C16.3001 23.6547 16.175 23.9582 16.0303 24.2526C15.9424 24.432 15.8156 24.5896 15.6592 24.7139C15.5028 24.8382 15.3207 24.9262 15.1261 24.9713C14.9315 25.0165 14.7292 25.0178 14.534 24.9751C14.3389 24.9323 14.1557 24.8467 13.9977 24.7243C13.408 24.3151 13.3942 24.1347 12.6588 24.6758C12.5651 24.7797 12.4513 24.8637 12.3243 24.9226C12.1974 24.9815 12.0598 25.0142 11.9199 25.0188C11.78 25.0233 11.6407 24.9996 11.5102 24.949C11.3796 24.8984 11.2607 24.822 11.1604 24.7243C9.72439 23.6838 9.11391 21.8454 10.0712 20.3539C9.48225 20.2697 8.90026 20.1421 8.33001 19.9724C7.3588 19.5839 7.17843 18.8832 7.79584 18.0508C7.97508 17.8712 8.08784 17.636 8.11558 17.3838C8.14332 17.1316 8.08438 16.8775 7.94846 16.6633C7.8659 16.5066 7.81842 16.3339 7.80929 16.157C7.80017 15.9802 7.82963 15.8034 7.89563 15.6391C7.96163 15.4748 8.06258 15.3268 8.1915 15.2053C8.32041 15.0839 8.47419 14.992 8.64218 14.9359C9.5579 14.5821 10.1129 14.9359 10.9523 15.2204C10.9523 15.0955 10.9037 14.9914 10.8898 14.8874C10.7942 14.4227 10.8377 13.9401 11.0147 13.4999C11.2298 13.0698 11.6321 13.049 12.1108 13.0698C12.5895 13.0906 12.6727 12.7646 13.0543 12.5773C14.3238 11.9529 14.9481 12.8409 15.3088 13.8954C19.1867 12.834 19.596 16.9824 17.9658 18.4462L17.9935 18.4045ZM13.2207 18.2658C13.2983 18.2408 13.3812 18.2373 13.4606 18.2556C13.54 18.2739 13.6129 18.3134 13.6717 18.3699C13.7986 18.3323 13.9099 18.2544 13.9887 18.148C14.0675 18.0417 14.1096 17.9126 14.1087 17.7802C14.1087 17.3917 14.1573 17.0032 14.1711 16.6217C14.1711 15.7962 14.518 14.9637 14.5388 14.1382C14.5758 13.9692 14.5697 13.7936 14.5213 13.6276C14.4728 13.4615 14.3834 13.3103 14.2613 13.1878C13.6439 12.6397 13.2693 13.3612 12.8253 13.5832C12.0484 13.9786 11.4379 13.2988 11.4379 14.5336C11.4379 15.7684 11.7223 17.579 12.9433 18.2589C12.9918 17.8426 13.0473 17.3778 13.0612 17.0032C13.0612 16.7743 13.0126 16.5662 12.7213 16.5246C12.6694 16.5254 12.618 16.5141 12.5712 16.4916C12.5245 16.4691 12.4836 16.436 12.452 16.3949C12.4203 16.3537 12.3987 16.3058 12.3888 16.2549C12.379 16.2039 12.3812 16.1513 12.3952 16.1014C12.4143 16.0335 12.4476 15.9705 12.4931 15.9167C12.5386 15.8628 12.5951 15.8194 12.6588 15.7892C12.8808 15.699 13.0404 15.8378 13.1583 16.032C13.2948 16.2329 13.387 16.4604 13.4289 16.6996C13.4707 16.9388 13.4613 17.1842 13.4011 17.4195C13.3456 17.6484 13.2554 17.9953 13.193 18.2797L13.2207 18.2658ZM14.3931 17.1142C14.4534 17.0178 14.5419 16.9423 14.6465 16.8978C14.7511 16.8534 14.8669 16.8421 14.9781 16.8655C15.0894 16.889 15.1907 16.9461 15.2685 17.029C15.3462 17.1119 15.3967 17.2168 15.4129 17.3293C15.4129 17.5651 15.2811 17.8565 15.0383 17.8634C14.9368 17.8538 14.8346 17.8538 14.7331 17.8634C14.3238 18.0161 14.1365 18.5572 13.7757 18.7514C14.1781 19.0358 14.5388 19.4451 15.1632 19.244C15.7875 19.0428 15.7528 19.6879 15.5725 19.7781C15.3921 19.8683 15.3158 19.9099 15.0452 19.6671C14.5249 19.4451 14.1989 19.4243 13.6578 19.1676C13.7309 19.4994 13.85 19.8193 14.0116 20.118C14.1522 20.3319 14.2598 20.5658 14.3307 20.8118C14.3409 20.8668 14.3388 20.9233 14.3247 20.9774C14.3106 21.0316 14.2847 21.0819 14.249 21.125C14.2133 21.168 14.1685 21.2026 14.1179 21.2264C14.0673 21.2502 14.012 21.2626 13.9561 21.2627C13.748 21.2627 13.5121 21.0754 13.5745 20.8811C13.6355 20.6251 13.6319 20.358 13.5641 20.1037C13.4963 19.8494 13.3664 19.616 13.1861 19.4243C12.9571 19.9238 12.7837 20.1943 12.6172 20.6175C12.5756 20.7285 12.6172 20.8742 12.6172 20.9991C12.623 21.0925 12.5923 21.1846 12.5314 21.2558C12.4706 21.327 12.3844 21.3718 12.2912 21.3806C12.2407 21.3905 12.1888 21.3898 12.1387 21.3784C12.0886 21.367 12.0415 21.3453 12.0003 21.3146C11.9591 21.2838 11.9248 21.2448 11.8997 21.2001C11.8745 21.1553 11.859 21.1057 11.8541 21.0546C11.8235 20.9179 11.8349 20.7752 11.8869 20.6452C11.9389 20.5152 12.0291 20.404 12.1455 20.3262C12.4794 20.0562 12.7038 19.6741 12.7768 19.2509C12.2148 19.398 11.6181 19.3287 11.1049 19.0566C11.1049 19.0566 10.6609 19.5006 10.3071 19.133C10.2764 19.0618 10.2605 18.985 10.2605 18.9075C10.2605 18.83 10.2764 18.7532 10.3071 18.682C10.5985 18.0924 11.0008 18.7167 11.0008 18.7167C11.4379 18.904 12.2703 19.133 12.645 18.7653C12.6033 18.7306 11.7986 18.0369 11.7986 18.0369C11.7986 18.0369 11.1049 18.2311 11.1465 17.6761C11.1465 17.4472 11.4032 17.2599 11.7847 17.5374C11.6428 16.9303 11.3732 16.3604 10.9939 15.8655C10.7169 15.5723 10.3646 15.3609 9.97551 15.2544C9.58643 15.148 9.17556 15.1506 8.78786 15.262C8.66057 15.2938 8.54331 15.3571 8.44682 15.446C8.35033 15.5349 8.2777 15.6466 8.23558 15.7709C8.19347 15.8951 8.18323 16.028 8.20578 16.1573C8.22834 16.2865 8.28298 16.408 8.36469 16.5107C8.50005 16.6504 8.60575 16.8161 8.67545 16.9977C8.74515 17.1793 8.77741 17.3731 8.77028 17.5675C8.76315 17.7619 8.71679 17.9529 8.63397 18.1289C8.55116 18.305 8.43361 18.4624 8.28839 18.5919C7.59466 19.4382 10.4459 20.2776 11.5489 19.681C10.1614 20.4996 9.96719 22.005 10.8552 23.33C11.011 23.7068 11.2649 24.0349 11.5905 24.2804C12.1108 24.5925 12.5548 24.1416 13.1097 23.9543C13.2766 23.8969 13.455 23.8815 13.6292 23.9093C13.8034 23.9371 13.9681 24.0074 14.1087 24.1139C14.2229 24.2108 14.3593 24.278 14.5058 24.3094C14.6522 24.3409 14.8042 24.3357 14.9481 24.2942C16.842 23.6005 15.5794 21.2696 14.8995 20.229C15.5221 20.7626 15.9994 21.4452 16.287 22.2131C16.7518 23.4479 18.0976 23.9127 18.1947 22.5044C18.1978 22.2895 18.2657 22.0805 18.3895 21.9048C18.5132 21.729 18.6871 21.5947 18.8884 21.5194C19.1124 21.4378 19.3303 21.3404 19.5405 21.228C19.6559 21.1801 19.7588 21.1065 19.8413 21.0127C19.9238 20.9189 19.9838 20.8075 20.0166 20.687C20.0494 20.5664 20.0542 20.44 20.0306 20.3173C20.007 20.1947 19.9556 20.0791 19.8805 19.9793C19.3186 18.904 18.6873 18.689 17.5218 19.3272C17.3175 19.4671 17.0757 19.5419 16.8281 19.5419C16.5805 19.5419 16.3387 19.4671 16.1344 19.3272C17.0293 19.1538 18.3959 17.5305 18.3612 16.6286C18.3604 16.2495 18.2782 15.8749 18.1202 15.5303C17.9623 15.1856 17.7322 14.8788 17.4455 14.6307C17.307 14.4857 17.1377 14.3736 16.9501 14.3028C16.7625 14.232 16.5614 14.2042 16.3616 14.2215C16.1619 14.2388 15.9685 14.3008 15.7959 14.4028C15.6233 14.5049 15.4758 14.6444 15.3643 14.8111C14.8836 15.5027 14.5528 16.2872 14.3931 17.1142Z" fill="#EDB7C4"/>
<path fill-rule="evenodd" clip-rule="evenodd" d="M64.6671 23.9955C66.0545 26.4721 65.8742 28.3867 62.4611 27.9705C61.9477 27.9081 61.7673 28.6642 61.0736 28.8238C58.0698 29.3024 58.153 26.8675 58.0282 25.1124C57.6597 25.8388 57.0625 26.4239 56.3286 26.7773C54.1711 27.6375 51.4239 27.0062 51.9581 24.0024C52.2148 22.615 51.5349 22.1432 51.2644 20.9292C51.1714 20.3969 51.2721 19.8489 51.5483 19.3845C51.8244 18.92 52.2577 18.5697 52.7698 18.3971C52.9154 18.3416 53.0681 18.3 53.297 18.2376C52.4333 17.7377 51.7157 17.0201 51.2158 16.1564C50.5221 14.8245 53.297 11.3767 53.297 11.3697C54.6844 10.8494 56.2384 11.6819 57.1402 12.6878C56.9945 11.3004 57.7368 10.1835 59.2838 10.4679C59.8106 10.5618 60.3189 10.7398 60.7892 10.9951C62.6553 12.0426 66.5818 11.2379 64.8266 16.5449C66.2141 16.2258 68.101 16.3784 69.0306 17.634C70.3001 19.6736 68.1704 20.2077 68.0386 20.9639C68.0035 21.5524 67.8649 22.1301 67.6293 22.6705C67.3016 23.1398 66.8537 23.5125 66.3326 23.7492C65.8114 23.986 65.2362 24.0783 64.6671 24.0163V23.9955ZM59.811 20.2008C59.922 19.632 58.7219 18.9521 58.1253 19.5695C57.3345 20.3951 58.375 21.1651 59.0133 21.0402C59.2197 21.0066 59.4094 20.9064 59.5535 20.7548C59.6975 20.6032 59.788 20.4087 59.811 20.2008ZM60.0469 20.7835C60.0122 20.846 59.8527 20.9639 59.8527 20.9847C59.9775 21.3732 60.5464 21.7686 60.8239 21.9559C61.025 21.838 61.4135 21.8727 61.4135 22.2126C61.4135 22.3444 61.2817 22.4277 61.1638 22.497C60.6158 22.83 60.6296 22.1571 60.6296 22.1502C60.2961 21.8243 59.9415 21.5208 59.5682 21.2414C59.4226 22.1016 60.1648 22.7884 60.9557 23.1144C61.1569 23.1561 61.2887 23.0243 61.4135 23.1769C61.4584 23.2427 61.4847 23.3193 61.4897 23.3988C61.4947 23.4782 61.4783 23.5576 61.4421 23.6285C61.4059 23.6994 61.3513 23.7593 61.2841 23.8019C61.2168 23.8445 61.1393 23.8682 61.0597 23.8706C60.8447 23.8706 60.7406 23.7041 60.7337 23.489C60.7337 23.4197 60.7337 23.3434 60.7337 23.2671C60.04 22.83 59.2491 22.5109 59.0826 21.6091C58.6595 21.6646 57.4385 21.2553 57.383 20.6934C56.8183 20.8666 56.237 20.9805 55.6487 21.0333C55.5238 21.0333 55.4683 21.1443 55.3435 21.1581C55.2186 21.172 54.9481 21.1096 54.9134 20.8945C54.9086 20.8258 54.9185 20.7569 54.9424 20.6923C54.9664 20.6277 55.0037 20.569 55.0521 20.5199C55.0819 20.4897 55.1179 20.4664 55.1577 20.4516C55.1974 20.4368 55.2399 20.4308 55.2822 20.4341C55.3244 20.4374 55.3655 20.4499 55.4024 20.4707C55.4394 20.4915 55.4713 20.5202 55.4961 20.5546C55.59 20.6355 55.7039 20.6898 55.8259 20.7117C55.9479 20.7337 56.0736 20.7225 56.1898 20.6795C56.5922 20.5615 56.8488 20.3812 57.3761 20.2286C56.7049 20.0643 56.0699 19.7774 55.503 19.3822C55.0151 19.0062 54.4048 18.825 53.7908 18.8737C53.1767 18.9224 52.6027 19.1976 52.1801 19.6458C51.4448 20.4228 51.9096 21.29 52.3188 22.0877C52.7126 22.8531 52.7898 23.7425 52.5339 24.5643C52.1732 26.7218 56.6962 27.4294 57.605 24.3146C57.8339 23.5168 57.5495 22.2334 58.2987 21.4426C57.9241 22.3583 58.2987 24.1689 58.6456 25.1262C59.0549 26.257 58.486 26.9022 59.5197 27.9913C60.8516 28.7544 61.3927 27.5473 62.4056 27.4363C63.0022 27.5126 64.7781 27.4363 64.8336 26.3819C64.8752 25.5633 63.6057 23.2254 62.1211 22.3097C62.6206 22.5456 63.3143 22.9063 63.7861 23.1006C64.3495 23.3393 64.9761 23.3851 65.5683 23.2308C66.1605 23.0764 66.6851 22.7307 67.0604 22.2473C67.2162 22.1003 67.3328 21.9166 67.3994 21.7131C67.4661 21.5095 67.4807 21.2925 67.442 21.0818C67.376 20.9182 67.3599 20.7386 67.3957 20.5658C67.4315 20.393 67.5176 20.2346 67.6432 20.1106C68.0594 19.6111 68.7739 19.1602 68.5381 18.4249C67.9345 16.5449 65.6105 16.3437 64.2231 17.523C63.7606 17.8943 63.3248 18.2977 62.9189 18.7301C63.1132 17.3427 65.5967 16.2397 64.1745 13.3677C63.3351 11.675 62.0379 12.7641 60.7476 11.6819C59.7972 10.8841 57.6813 10.7454 57.5218 12.2785C57.5338 13.6811 57.8312 15.0666 58.3958 16.3507C57.6536 16.1148 57.5842 13.8741 56.8142 13.1803C56.0441 12.4866 53.6508 10.8148 53.2415 12.4866C53.0854 13.3766 52.6302 14.1867 51.9512 14.7828C51.2575 15.5459 52.1038 16.6351 52.7975 17.0305C53.1652 17.2386 53.7132 17.3982 54.0948 17.5716C54.7205 17.8447 55.2862 18.2383 55.7597 18.7301C56.2365 19.249 56.8841 19.579 57.5842 19.6597C57.6673 19.5439 57.7438 19.4235 57.8131 19.299C57.2979 18.5888 56.6698 17.9679 55.9539 17.4606C55.6348 17.641 55.1145 17.745 55.2602 17.0791C55.3157 16.7669 55.7597 16.6143 56.0719 17.1623C56.5696 17.5249 57.0339 17.9312 57.4593 18.3763C57.6189 18.5983 57.827 18.7787 58.0212 19.0076C58.2085 18.9382 58.264 18.9035 58.4305 18.8342C57.9537 18.0553 57.6266 17.1942 57.4663 16.2952C56.9598 16.2397 57.161 15.7055 57.2581 15.6569C57.3176 15.6281 57.3828 15.6131 57.4489 15.6131C57.515 15.6131 57.5802 15.6281 57.6397 15.6569C57.8686 15.7887 57.7784 16.1217 57.6883 16.2188C57.5981 16.316 58.4444 18.3694 58.8398 18.7579C58.9716 18.4665 59.6584 16.5588 59.4434 16.309C59.2283 16.0593 59.0826 16.0107 59.3254 15.7194C59.5682 15.428 60.0192 15.7749 59.9498 16.094C59.9498 16.2188 59.7694 16.2882 59.7347 16.4131C59.5145 17.2156 59.3591 18.0345 59.2699 18.8619C59.3371 18.8949 59.4067 18.9227 59.4781 18.9452C60.2966 18.1266 60.8655 17.6132 60.921 17.5161C60.9765 17.419 60.921 17.0513 61.143 17.0166C61.2099 17.0014 61.2793 17.001 61.3464 17.0154C61.4135 17.0297 61.4767 17.0586 61.5315 17.0999C61.5867 17.1414 61.6249 17.2017 61.6389 17.2693C61.653 17.337 61.6419 17.4075 61.6078 17.4675C61.5453 17.6271 61.358 17.6965 61.1083 17.6063C60.9002 17.9462 60.2134 18.1613 59.7209 19.1533C59.818 19.2019 59.9359 19.4308 59.9983 19.4447C60.4839 19.5973 62.8773 19.8331 63.0993 19.3614C63.0993 19.3059 63.0993 19.188 63.0993 19.1117C63.1058 19.0653 63.1219 19.0209 63.1464 18.981C63.171 18.9412 63.2034 18.9069 63.2419 18.8802C63.2803 18.8535 63.3238 18.835 63.3697 18.8259C63.4156 18.8168 63.4629 18.8172 63.5086 18.8272C63.6648 18.8671 63.8008 18.9635 63.8901 19.0978C63.9459 19.1846 63.9655 19.2898 63.9448 19.3909C63.924 19.492 63.8646 19.581 63.7791 19.6389C63.6057 19.7638 63.349 19.5903 63.134 19.6389C62.18 20.0379 61.1117 20.0676 60.1371 19.7221C60.1958 19.9497 60.1958 20.1884 60.1371 20.4159C60.8459 20.662 61.5407 20.9468 62.2183 21.2691C62.4749 21.1235 62.7385 21.1373 62.7108 21.5119C62.7092 21.5775 62.6887 21.6411 62.6518 21.6953C62.6149 21.7495 62.5631 21.7918 62.5027 21.8172C62.46 21.8387 62.4129 21.8496 62.3651 21.849C62.3174 21.8485 62.2705 21.8365 62.2283 21.8141C62.1862 21.7917 62.1501 21.7594 62.123 21.7201C62.0958 21.6808 62.0786 21.6356 62.0726 21.5883C61.4538 21.181 60.7525 20.9157 60.0192 20.8113L60.0469 20.7835Z" fill="#EDB7C4"/>
<path fill-rule="evenodd" clip-rule="evenodd" d="M36.7725 7.69323C36.7786 8.03922 36.7112 8.38257 36.5749 8.70064C36.4386 9.01871 36.2364 9.30428 35.9817 9.53852C36.6754 9.64952 36.4951 11.0231 36.9737 11.696C37.5773 12.5562 37.8894 13.5066 37.2235 14.2975C36.0927 15.6433 33.1236 15.6433 31.6737 15.0675C31.7153 15.2825 31.75 15.4352 31.7778 15.5947C31.8374 15.8879 31.8153 16.1918 31.7137 16.4733C31.6122 16.7547 31.4351 17.0028 31.202 17.1903C30.886 17.493 30.5011 17.7143 30.0805 17.8351C29.66 17.956 29.2163 17.9728 28.7878 17.884C28.0941 17.6967 27.5114 18.3835 26.9425 18.7165C26.4562 18.9879 25.8858 19.0672 25.3439 18.9387C24.802 18.8103 24.3278 18.4835 24.015 18.0227C23.712 17.5541 23.5551 17.006 23.5641 16.448C23.5641 15.5878 23.5641 14.7276 23.6057 13.8118C22.7524 14.2281 20.7615 15.1369 20.1371 14.0477C19.7129 13.4738 19.1142 13.0527 18.4306 12.8476C18.1366 12.6561 17.8896 12.401 17.7076 12.1011C17.5257 11.8012 17.4136 11.4642 17.3796 11.1151C17.3457 10.766 17.3907 10.4137 17.5114 10.0843C17.632 9.75498 17.8253 9.457 18.0768 9.21247C19.3879 7.71404 20.2828 7.48511 22.142 7.20068C21.8714 6.58327 21.5731 6.04911 21.3858 5.47332C21.3067 5.26982 21.2687 5.05265 21.2741 4.83438C21.2795 4.61611 21.3281 4.40107 21.4171 4.20171C21.5061 4.00236 21.6338 3.82264 21.7928 3.67296C21.9517 3.52328 22.1388 3.40662 22.3431 3.32972C23.8069 2.636 23.5433 3.18404 24.9238 1.87984C25.2653 1.49928 25.7263 1.24653 26.2308 1.16329C26.7353 1.08005 27.253 1.1713 27.6987 1.42198C28.9543 2.0394 29.3775 3.15629 29.5162 4.44661C29.5162 4.62698 29.5162 4.80041 29.5162 5.14033C29.7382 4.93915 29.87 4.81428 30.0018 4.70329C30.8111 3.91155 31.8372 3.37796 32.9501 3.17016C34.1988 2.99673 34.9203 3.24647 35.1146 4.46048C35.2741 5.42476 35.0591 5.41088 35.6765 5.94505C36.1678 6.43859 36.5424 7.03594 36.7725 7.69323ZM26.6997 10.1074C26.6997 10.1074 26.7413 9.85764 26.4708 9.96169C26.0615 10.1282 25.6522 10.3016 25.2429 10.4542C25.0001 10.5444 24.7781 10.5999 24.6741 10.9052C24.6576 10.9631 24.6288 11.0167 24.5895 11.0624C24.5503 11.1081 24.5017 11.1447 24.447 11.1698C24.3922 11.1948 24.3327 11.2077 24.2725 11.2075C24.2123 11.2074 24.1529 11.1941 24.0983 11.1688C23.9928 11.1313 23.9038 11.058 23.8468 10.9616C23.7897 10.8653 23.7683 10.7521 23.7861 10.6415C23.8082 10.5224 23.8752 10.4163 23.9734 10.3453C24.0715 10.2743 24.1933 10.2437 24.3133 10.26C25.0209 10.2371 25.7109 10.0342 26.3182 9.67033C25.8464 9.4969 25.4788 9.37203 25.1111 9.22635C24.1727 8.94083 23.3084 8.45302 22.579 7.79728C21.7674 6.96482 17.4802 9.18473 18.382 11.6266C18.4437 11.8399 18.5579 12.0342 18.7143 12.1918C18.8707 12.3494 19.0641 12.4651 19.2769 12.5285C20.5325 12.8892 20.3938 13.9159 21.4691 13.8327C22.2169 13.779 22.9428 13.556 23.5918 13.1806C23.5918 13.1806 26.2904 10.4542 26.7275 10.0866L26.6997 10.1074ZM27.8582 8.77543C27.966 8.71597 28.0904 8.694 28.212 8.713L28.5728 7.74179C29.0029 6.12541 29.3289 4.16218 28.3508 2.72618C28.1725 2.4437 27.9226 2.21342 27.6265 2.05869C27.3305 1.90396 26.9988 1.83029 26.665 1.84515C26.49 1.82992 26.3141 1.86176 26.1555 1.93739C25.997 2.01301 25.8615 2.12967 25.7632 2.27526C25.4678 2.70048 25.0916 3.06332 24.6559 3.34304C24.2203 3.62277 23.7337 3.8139 23.2242 3.90551C23.0577 3.94713 22.8981 3.98182 22.7386 4.03038C22.1628 4.19687 21.9408 4.50211 22.0448 5.09177C22.1096 5.41497 22.2293 5.72469 22.3986 6.00748C23.2589 7.39493 25.014 9.31653 26.7691 9.31653C26.5402 8.8448 25.7008 7.62385 25.562 7.73485C25.4233 7.84584 25.1527 7.73485 25.0695 7.41574C25.1111 7.08969 25.4718 6.92319 25.673 7.14519C25.7493 7.24231 25.7354 7.42961 25.8118 7.52673C26.0546 7.81116 26.332 8.0609 26.5471 8.36614C26.6857 8.63243 26.8582 8.87961 27.0605 9.10148C27.0605 9.10148 27.3102 8.93499 27.4004 8.89336C27.4004 8.29676 27.4004 7.67241 27.4559 7.08275C27.4715 6.98234 27.4517 6.87962 27.3998 6.79226C27.3478 6.7049 27.2671 6.63836 27.1714 6.60408C27.1251 6.5928 27.082 6.57106 27.0454 6.54054C27.0088 6.51001 26.9797 6.4715 26.9602 6.42797C26.9408 6.38444 26.9316 6.33704 26.9334 6.28941C26.9351 6.24177 26.9477 6.19516 26.9703 6.15316C27.0542 6.02253 27.1864 5.93029 27.3379 5.89649C27.3887 5.88549 27.4412 5.88518 27.4921 5.89557C27.543 5.90596 27.5912 5.92682 27.6336 5.95683C27.676 5.98684 27.7117 6.02534 27.7384 6.06989C27.7652 6.11444 27.7823 6.16406 27.7889 6.2156C27.7889 6.30578 27.7125 6.48615 27.7195 6.57633C27.768 7.36024 27.8305 7.96378 27.8305 8.77543H27.8582ZM27.4351 10.0588C27.8374 10.6762 28.8225 10.5999 28.6213 9.58015C28.4965 9.03211 28.0178 8.88643 27.6709 9.21941C27.3241 9.5524 27.1576 9.63565 27.4351 10.0588ZM28.8849 10.26C28.8762 10.3562 28.8877 10.4532 28.9187 10.5447C28.9496 10.6362 28.9994 10.7202 29.0647 10.7914C29.13 10.8626 29.2094 10.9194 29.2979 10.9581C29.3864 10.9968 29.4821 11.0165 29.5787 11.0162C30.1128 11.0162 31.1326 11.7584 30.8135 12.2579C30.7788 12.298 30.7345 12.3285 30.6847 12.3467C30.635 12.3649 30.5814 12.3702 30.5291 12.362C30.4722 12.3427 30.42 12.3118 30.3758 12.2712C30.3315 12.2306 30.2963 12.1812 30.2724 12.1261C30.2501 12.0526 30.2467 11.9747 30.2625 11.8995C30.2783 11.8244 30.3127 11.7544 30.3626 11.696C30.1586 11.5324 29.9221 11.4141 29.6688 11.3491C29.4246 11.2846 29.1702 11.2681 28.9196 11.3006C28.9196 12.6533 31.2436 14.4917 32.6449 14.8039C33.8242 15.0605 35.843 14.901 36.6962 13.9228C36.7976 13.8269 36.8784 13.7113 36.9336 13.583C36.9888 13.4548 37.0173 13.3167 37.0173 13.1771C37.0173 13.0375 36.9888 12.8994 36.9336 12.7711C36.8784 12.6429 36.7976 12.5273 36.6962 12.4313C36.2295 11.8785 35.963 11.1843 35.9401 10.4612C35.8707 9.42753 32.2842 9.76745 31.5141 9.76745C30.7441 9.76745 31.0493 9.36509 31.4031 9.33041C32.2425 9.24022 33.1305 9.33041 33.9907 9.23329C34.5841 9.25903 35.1702 9.09368 35.6626 8.76156C35.8358 8.56002 35.9475 8.31298 35.9844 8.0498C36.0213 7.78663 35.9818 7.51839 35.8707 7.27699C35.5014 6.8081 35.1077 6.35888 34.6914 5.93117C34.1919 5.23745 34.3792 4.21768 33.5398 3.85001C32.5825 3.46153 31.0424 4.44661 30.3001 5.18195C29.8912 5.52173 29.5419 5.92734 29.2665 6.38209C29.0965 6.88706 28.9552 7.40123 28.8433 7.92215C29.0313 7.90661 29.2093 7.83065 29.3506 7.70561C29.4919 7.58058 29.5889 7.41318 29.6272 7.22843C29.6272 7.17293 29.5301 6.89545 29.544 6.83301C29.5925 6.63183 29.7035 6.49309 29.9255 6.50696C30.1475 6.52084 30.2516 6.70814 30.2516 6.93707C30.2535 7.07129 30.2237 7.20406 30.1646 7.3246C30.1055 7.44514 30.0189 7.55005 29.9116 7.63079C29.544 7.90134 28.8364 8.2482 28.6144 8.64362C28.7878 8.64362 28.8711 8.80318 28.9404 8.98355C28.9404 8.98355 29.2457 8.78931 29.4052 8.69912C29.7243 8.51875 30.0504 8.3592 30.3764 8.1927C30.4627 8.13486 30.5674 8.11133 30.6701 8.12674C30.7727 8.14214 30.866 8.19536 30.9314 8.27595C30.9962 8.344 31.0352 8.43259 31.0415 8.52636C31.0479 8.62013 31.0212 8.71316 30.9661 8.78931C30.936 8.83673 30.8965 8.87755 30.8502 8.90933C30.8038 8.9411 30.7515 8.96316 30.6965 8.97418C30.6414 8.9852 30.5846 8.98495 30.5296 8.97344C30.4746 8.96194 30.4225 8.93942 30.3764 8.90724L30.1336 8.75462C29.8284 8.92805 29.4399 9.10148 29.1208 9.28185C29.159 9.48557 29.1446 9.69566 29.0792 9.89232C29.282 9.95903 29.5008 9.95903 29.7035 9.89232C30.0863 9.71792 30.5177 9.68115 30.9245 9.78826C31.091 9.85764 31.2436 9.92701 31.2297 10.1282C31.2212 10.1876 31.196 10.2434 31.1572 10.2892C31.1183 10.3349 31.0674 10.3688 31.0101 10.3869C30.9529 10.4051 30.8917 10.4067 30.8336 10.3916C30.7755 10.3765 30.7229 10.3453 30.6817 10.3016C30.3834 10.0033 30.092 10.1837 29.8145 10.3016C29.6657 10.3468 29.5094 10.3621 29.3546 10.3466C29.1998 10.3311 29.0496 10.2852 28.9127 10.2114L28.8849 10.26ZM27.3518 10.4959C27.3518 10.4612 27.2269 10.3224 27.1784 10.3432C26.846 10.5971 26.5351 10.8778 26.2488 11.1826C26.1864 11.2312 26.1794 11.3769 26.1864 11.4809C26.2017 11.603 26.2017 11.7265 26.1864 11.8486C26.1582 11.9175 26.1102 11.9765 26.0485 12.018C25.9867 12.0596 25.9139 12.0817 25.8395 12.0817C25.7651 12.0817 25.6923 12.0596 25.6305 12.018C25.5688 11.9765 25.5208 11.9175 25.4926 11.8486C25.2082 12.2163 24.8683 12.7782 24.6047 13.1528C24.3017 13.6215 24.1447 14.1696 24.1538 14.7276C24.1538 15.3658 24.1538 16.0109 24.1954 16.6561C24.2133 16.8389 24.2552 17.0185 24.3203 17.1903C24.3849 17.4371 24.5115 17.6633 24.688 17.8475C24.8646 18.0317 25.0853 18.1678 25.3291 18.2428C25.573 18.3179 25.832 18.3294 26.0816 18.2763C26.3311 18.2232 26.563 18.1073 26.7552 17.9395C26.9901 17.7319 27.238 17.5396 27.4975 17.3637C27.6719 17.2252 27.8791 17.1339 28.099 17.0987C28.3189 17.0635 28.5442 17.0854 28.7531 17.1625C30.2863 17.7244 31.528 15.7335 30.8343 14.8455C30.3626 14.1518 29.4469 13.458 28.9682 12.7643C28.9682 12.7643 28.9682 13.5066 28.5381 13.2014C28.4665 13.1575 28.4102 13.0927 28.3767 13.0158C28.3432 12.9389 28.3341 12.8535 28.3508 12.7713C28.3855 12.6186 28.4826 12.5077 28.4618 12.3758C28.441 12.244 28.3022 12.1053 28.2745 11.9735C28.2526 11.7792 28.2838 11.5826 28.3646 11.4046C28.4618 11.148 28.4271 10.9953 28.1704 10.919C27.9137 10.8427 27.8513 10.8566 27.7056 10.8288C27.6061 10.8914 27.5307 10.9857 27.4916 11.0966C27.4526 11.2074 27.4522 11.3282 27.4906 11.4393C27.5391 11.696 27.5877 11.9249 27.6224 12.1885C27.6224 12.251 27.7264 12.2857 27.7334 12.4105C27.7403 12.5354 27.6917 12.7227 27.5114 12.7435C27.4516 12.7454 27.3921 12.7332 27.3379 12.7079C27.2837 12.6826 27.2362 12.6449 27.1992 12.5978C27.1368 12.4383 27.1992 12.3203 27.3796 12.14C27.1805 11.6479 27.1513 11.1036 27.2963 10.593C27.3379 10.5583 27.3379 10.5444 27.3518 10.4959Z" fill="#EDB7C4"/>
<path fill-rule="evenodd" clip-rule="evenodd" d="M4.21622 45.2585C4.00279 45.2585 3.79811 45.1738 3.6472 45.0228C3.49628 44.8719 3.4115 44.6672 3.4115 44.4538C3.4115 44.2404 3.49628 44.0357 3.6472 43.8848C3.79811 43.7339 4.00279 43.6491 4.21622 43.6491H22.3293L28.101 21.8593C28.1268 21.7571 28.1727 21.661 28.2362 21.5768C28.2996 21.4926 28.3792 21.4219 28.4703 21.3689C28.5615 21.3159 28.6623 21.2817 28.7668 21.2682C28.8714 21.2547 28.9776 21.2623 29.0792 21.2905C29.2177 21.3266 29.3441 21.3989 29.4453 21.5002C29.5465 21.6014 29.6189 21.7277 29.655 21.8663L39.1173 59.7573L45.6314 32.9658C45.6823 32.759 45.8131 32.5808 45.9951 32.4703C46.1772 32.3597 46.3956 32.3259 46.6026 32.3761C46.7419 32.4099 46.8695 32.4805 46.972 32.5806C47.0745 32.6807 47.1482 32.8066 47.1853 32.945L50.0573 43.6491H72.2217C72.3274 43.6491 72.432 43.6699 72.5297 43.7104C72.6273 43.7508 72.716 43.8101 72.7907 43.8848C72.8655 43.9595 72.9247 44.0482 72.9652 44.1459C73.0056 44.2435 73.0264 44.3481 73.0264 44.4538C73.0264 44.5595 73.0056 44.6641 72.9652 44.7618C72.9247 44.8594 72.8655 44.9481 72.7907 45.0228C72.716 45.0976 72.6273 45.1568 72.5297 45.1973C72.432 45.2377 72.3274 45.2585 72.2217 45.2585H49.4399C49.2628 45.2585 49.0907 45.1999 48.9502 45.0921C48.8097 44.9842 48.7087 44.833 48.6629 44.6619L46.4847 36.3858L39.9151 63.2467C39.889 63.3987 39.8194 63.5399 39.7148 63.6532C39.6101 63.7664 39.4749 63.8469 39.3255 63.8849C39.1186 63.9356 38.9001 63.9029 38.7171 63.7939C38.5341 63.6849 38.4013 63.5083 38.3473 63.3022L28.8503 25.2794L23.7375 44.6064C23.7021 44.7901 23.6037 44.9557 23.4594 45.0747C23.315 45.1937 23.1338 45.2587 22.9467 45.2585H4.21622Z" fill="#009B97"/>
</svg>
