<svg width="620" height="555" viewBox="0 0 620 555" fill="none" xmlns="http://www.w3.org/2000/svg">
<path d="M606.646 213.195C618.34 249.118 597.332 292.091 553.536 332.581C509.775 373.039 443.403 410.871 364.79 436.461C286.178 462.051 210.254 470.538 151.062 463.593C91.8239 456.643 49.5447 434.271 37.8514 398.348C26.1581 362.426 47.166 319.453 90.9619 278.963C134.723 238.505 201.094 200.673 279.707 175.083C358.32 149.493 434.244 141.006 493.435 147.951C552.674 154.901 594.953 177.273 606.646 213.195Z" stroke="#D3D3D3"/>
<path d="M617.751 408.818C622.103 422.186 615.038 436.451 602.001 440.695C588.964 444.939 574.855 437.566 570.504 424.198C566.152 410.829 573.217 396.564 586.254 392.32C599.291 388.076 613.4 395.449 617.751 408.818Z" stroke="#EDB7C4"/>
<path d="M542.397 108.847C547.48 124.462 539.78 140.905 525.291 145.621C510.801 150.338 494.898 141.578 489.815 125.963C484.732 110.348 492.432 93.9049 506.921 89.1884C521.41 84.4718 537.314 93.2316 542.397 108.847Z" stroke="#EDB7C4"/>
<ellipse cx="312" cy="137.5" rx="137" ry="137.5" fill="url(#paint0_radial_0_1)"/>
<circle cx="522.5" cy="336.5" r="96.5" fill="url(#paint1_radial_0_1)"/>
<ellipse cx="188" cy="371" rx="188" ry="184" fill="url(#paint2_radial_0_1)"/>
<defs>
<radialGradient id="paint0_radial_0_1" cx="0" cy="0" r="1" gradientUnits="userSpaceOnUse" gradientTransform="translate(312 137.5) rotate(81.0237) scale(145.103 144.601)">
<stop stop-color="#FF91AB"/>
<stop offset="1" stop-color="#FFEDF1" stop-opacity="0"/>
</radialGradient>
<radialGradient id="paint1_radial_0_1" cx="0" cy="0" r="1" gradientUnits="userSpaceOnUse" gradientTransform="translate(522.5 336.5) rotate(80.9915) scale(101.845)">
<stop stop-color="#EDB7C4"/>
<stop offset="1" stop-color="#FFEAEF" stop-opacity="0"/>
</radialGradient>
<radialGradient id="paint2_radial_0_1" cx="0" cy="0" r="1" gradientUnits="userSpaceOnUse" gradientTransform="translate(188 371) rotate(80.799) scale(194.297 198.307)">
<stop stop-color="#FF91AB"/>
<stop offset="1" stop-color="#FFEFF3" stop-opacity="0"/>
</radialGradient>
</defs>
</svg>
